<svg width="650" height="517" viewBox="0 0 650 517" fill="none" xmlns="http://www.w3.org/2000/svg">
<g clip-path="url(#clip0)">
<path d="M484.634 510.031C475.641 502.433 470.179 490.429 471.611 478.743C473.044 467.058 481.916 456.315 493.424 453.834C504.933 451.352 518.052 458.221 521.548 469.463C523.471 447.789 525.688 425.206 537.212 406.748C547.646 390.035 565.718 378.076 585.305 375.937C604.891 373.797 625.513 381.878 637.728 397.337C649.944 412.796 652.935 435.271 644.379 453.02C638.077 466.094 626.466 475.825 614.3 483.741C574.988 509.105 527.839 519.42 481.528 512.787" fill="#F2F2F2"/>
<path d="M618.36 382.324C602.199 395.488 587.373 410.21 574.096 426.278C553.318 451.339 536.504 479.437 524.24 509.592C523.342 511.792 526.915 512.75 527.803 510.575C547.868 461.565 579.901 418.369 620.972 384.937C622.817 383.435 620.189 380.835 618.36 382.324Z" fill="white"/>
<path d="M158.838 515.23H107.838C106.114 515.228 104.462 514.543 103.244 513.325C102.025 512.106 101.34 510.454 101.338 508.73V402.73C101.34 401.007 102.025 399.355 103.244 398.136C104.462 396.918 106.114 396.232 107.838 396.23H158.838C160.561 396.232 162.213 396.918 163.432 398.136C164.65 399.355 165.336 401.007 165.338 402.73V508.73C165.336 510.454 164.65 512.106 163.432 513.325C162.213 514.543 160.561 515.228 158.838 515.23Z" fill="#0E7481"/>
<path d="M279.838 516.23H228.838C226.849 516.228 224.943 515.437 223.537 514.031C222.131 512.625 221.34 510.719 221.338 508.73V302.73C221.34 300.742 222.131 298.836 223.537 297.43C224.943 296.024 226.849 295.233 228.838 295.23H279.838C281.826 295.233 283.733 296.024 285.139 297.43C286.545 298.836 287.336 300.742 287.338 302.73V508.73C287.336 510.719 286.545 512.625 285.139 514.031C283.733 515.437 281.826 516.228 279.838 516.23V516.23ZM228.838 297.23C227.38 297.232 225.982 297.812 224.951 298.843C223.92 299.874 223.34 301.272 223.338 302.73V508.73C223.34 510.189 223.92 511.587 224.951 512.618C225.982 513.649 227.38 514.229 228.838 514.23H279.838C281.296 514.229 282.694 513.649 283.725 512.618C284.756 511.587 285.336 510.189 285.338 508.73V302.73C285.336 301.272 284.756 299.874 283.725 298.843C282.694 297.812 281.296 297.232 279.838 297.23H228.838Z" fill="#3F3D56"/>
<path d="M400.838 516.23H349.838C347.849 516.228 345.943 515.437 344.537 514.031C343.131 512.625 342.34 510.719 342.338 508.73V171.73C342.34 169.742 343.131 167.836 344.537 166.43C345.943 165.024 347.849 164.233 349.838 164.23H400.838C402.826 164.233 404.733 165.024 406.139 166.43C407.545 167.836 408.335 169.742 408.338 171.73V508.73C408.335 510.719 407.545 512.625 406.139 514.031C404.733 515.437 402.826 516.228 400.838 516.23V516.23ZM349.838 166.23C348.379 166.232 346.981 166.812 345.95 167.843C344.919 168.874 344.339 170.272 344.338 171.73V508.73C344.339 510.189 344.919 511.587 345.95 512.618C346.981 513.649 348.379 514.229 349.838 514.23H400.838C402.296 514.229 403.694 513.649 404.725 512.618C405.756 511.587 406.336 510.189 406.338 508.73V171.73C406.336 170.272 405.756 168.874 404.725 167.843C403.694 166.812 402.296 166.232 400.838 166.23H349.838Z" fill="#3F3D56"/>
<path d="M522.967 515.73H471.967C470.244 515.728 468.592 515.043 467.373 513.824C466.154 512.606 465.469 510.954 465.467 509.23V34.2305C465.469 32.5072 466.154 30.855 467.373 29.6365C468.592 28.4179 470.244 27.7325 471.967 27.7305H522.967C524.69 27.7325 526.342 28.4179 527.561 29.6365C528.78 30.855 529.465 32.5072 529.467 34.2305V509.23C529.465 510.954 528.78 512.606 527.561 513.824C526.342 515.043 524.69 515.728 522.967 515.73Z" fill="#0E7481"/>
<path d="M205.779 222.359C205.965 220.901 205.828 219.42 205.378 218.02C204.929 216.62 204.178 215.336 203.179 214.258C202.179 213.18 200.956 212.334 199.594 211.78C198.232 211.225 196.766 210.977 195.298 211.051L177.521 178.441L173.521 192.441L185.7 222.327C185.988 224.785 187.167 227.053 189.015 228.699C190.863 230.346 193.25 231.258 195.725 231.262C198.201 231.266 200.591 230.362 202.444 228.721C204.297 227.08 205.484 224.817 205.779 222.359V222.359Z" fill="#A0616A"/>
<path d="M68.8159 351.115L78.7169 358.344L111.312 323.591L96.6979 312.922L68.8159 351.115Z" fill="#A0616A"/>
<path d="M91.101 381.477L59.9811 358.757L68.759 346.734L87.8554 360.675C91.0442 363.003 93.1777 366.503 93.7863 370.404C94.395 374.305 93.4291 378.288 91.1011 381.477V381.477L91.101 381.477Z" fill="#2F2E41"/>
<path d="M121.201 389.379L133.461 389.378L139.293 342.09L121.199 342.091L121.201 389.379Z" fill="#A0616A"/>
<path d="M157.105 400.758L118.575 400.76L118.574 385.873L142.218 385.872C146.166 385.871 149.953 387.44 152.745 390.231C155.537 393.023 157.105 396.81 157.105 400.758V400.758V400.758Z" fill="#2F2E41"/>
<path d="M158.021 204.942C158.021 204.942 164.021 262.942 149.021 302.942L138.021 378.942H119.021L121.021 288.942L114.021 208.942C114.021 208.942 128.021 172.942 158.021 204.942Z" fill="#2F2E41"/>
<path d="M93.021 208.941L113.021 277.941L74.021 339.941L93.521 356.441L138.021 286.941L125.021 201.941L93.021 208.941Z" fill="#2F2E41"/>
<path d="M144.025 54.2158C157.59 54.2158 168.586 43.2195 168.586 29.6548C168.586 16.0901 157.59 5.09375 144.025 5.09375C130.46 5.09375 119.464 16.0901 119.464 29.6548C119.464 43.2195 130.46 54.2158 144.025 54.2158Z" fill="#A0616A"/>
<path d="M123.521 63.4395C123.521 63.4395 138.521 53.4394 155.521 75.4394L160.021 213.939C160.021 213.939 147.021 195.939 120.021 212.939C93.0209 229.939 87.0209 210.939 87.0209 210.939C87.0209 210.939 68.0209 67.9395 123.521 63.4395Z" fill="#0E7481"/>
<path d="M154.311 75.0919C158.625 75.3251 162.7 77.1454 165.753 80.2026C168.806 83.2597 170.621 87.3378 170.848 91.6522L174.021 151.941L195.021 208.941L183.021 218.941L144.021 150.941L136.036 95.048C135.67 92.4862 135.877 89.8751 136.641 87.4027C137.405 84.9302 138.708 82.658 140.456 80.7496C142.203 78.8411 144.352 77.3438 146.748 76.3655C149.144 75.3872 151.727 74.9522 154.311 75.0919V75.0919Z" fill="#0E7481"/>
<path d="M125.978 48.0764C129.993 52.3535 137.45 50.0575 137.973 44.2143C138.014 43.7607 138.011 43.3041 137.964 42.851C137.694 40.2628 136.199 37.913 136.557 35.1801C136.638 34.5 136.891 33.8518 137.293 33.297C140.493 29.0124 148.004 35.2134 151.023 31.3347C152.875 28.9563 150.699 25.2117 152.119 22.5535C153.995 19.0451 159.55 20.7758 163.033 18.8544C166.909 16.7167 166.677 10.7702 164.126 7.15322C161.014 2.74223 155.559 0.388471 150.172 0.0492209C144.784 -0.290029 139.434 1.16631 134.405 3.12637C128.69 5.35337 123.023 8.43118 119.507 13.456C115.23 19.5667 114.819 27.782 116.957 34.9273C118.258 39.2739 122.699 44.5837 125.978 48.0764Z" fill="#2F2E41"/>
<path d="M648.485 515.807H1.19064C0.875452 515.806 0.573473 515.68 0.350922 515.457C0.12837 515.234 0.00341797 514.932 0.00341797 514.616C0.00341797 514.301 0.12837 513.999 0.350922 513.776C0.573473 513.552 0.875452 513.427 1.19064 513.426H648.485C648.8 513.427 649.102 513.552 649.324 513.776C649.547 513.999 649.672 514.301 649.672 514.616C649.672 514.932 649.547 515.234 649.324 515.457C649.102 515.68 648.8 515.806 648.485 515.807Z" fill="#3F3D56"/>
</g>
<defs>
<clipPath id="clip0">
<rect width="649.675" height="516.232" fill="white"/>
</clipPath>
</defs>
</svg>
