<svg width="652" height="582" viewBox="0 0 652 582" fill="none" xmlns="http://www.w3.org/2000/svg">
<g clip-path="url(#clip0)">
<path d="M133.151 541.527C133.038 554.392 132.096 567.236 130.33 579.979C130.268 580.426 130.201 580.874 130.139 581.321L9.66355 580.648C9.30982 580.204 8.96164 579.754 8.6243 579.299C7.49953 577.792 6.44529 576.243 5.4776 574.641C0.826222 566.92 -1.30323 557.881 0.83069 551.645L0.868929 551.548C1.32956 550.182 2.0554 548.921 3.00479 547.836C7.87008 542.36 17.7072 543.273 26.6342 547.693C18.6273 538.929 12.2517 527.869 11.7672 517.998C11.2922 508.369 16.3272 501.49 21.7881 495.644C21.9673 495.451 22.1465 495.263 22.3256 495.075C22.4126 494.979 22.5048 494.888 22.5915 494.791C26.8522 490.336 31.8195 485.945 39.0092 486.476C46.8945 487.06 55.637 493.664 61.7668 501.361C67.8967 509.052 71.9702 517.789 76.0991 526.316C80.2333 534.838 84.7061 543.577 91.3402 550.861C82.3548 539.495 75.1102 526.564 72.4341 513.987C69.7579 501.411 72.1131 489.332 80.1212 483.409C82.5524 481.666 85.3656 480.531 88.3255 480.098C88.6709 480.041 89.0219 479.994 89.3783 479.953C96.7916 479.11 105.643 481.674 113.174 487.802C121.467 494.55 127.217 504.554 130.078 514.051C132.939 523.547 133.243 532.689 133.151 541.527Z" fill="#F2F2F2"/>
<path d="M54.3291 580.9L52.0254 580.887C51.2939 580.43 50.559 579.978 49.8206 579.531C49.3635 579.243 48.9011 578.965 48.4384 578.682C40.797 574.015 33.1078 569.538 25.3708 565.252C17.6408 560.962 9.87189 556.87 2.0642 552.976C1.85725 552.886 1.68842 552.726 1.58703 552.524C1.48564 552.323 1.4581 552.092 1.50921 551.872C1.51758 551.843 1.53054 551.816 1.5476 551.791C1.6565 551.587 1.89991 551.502 2.25515 551.676C3.21282 552.157 4.17603 552.637 5.13363 553.128C12.9627 557.089 20.7581 561.248 28.5199 565.604C36.2764 569.959 43.9887 574.506 51.6568 579.245C51.818 579.343 51.9795 579.446 52.1407 579.544C52.8719 579.996 53.5979 580.448 54.3291 580.9Z" fill="white"/>
<path d="M84.0326 581.063L82.6081 581.055C82.2868 580.605 81.971 580.156 81.6497 579.706C74.1009 569.12 66.5536 558.535 59.008 547.949C46.6511 530.619 34.2979 513.288 21.9483 495.958C21.8751 495.864 21.8207 495.758 21.7881 495.644C21.6825 495.26 21.9643 495.035 22.3256 495.075C22.4779 495.097 22.6238 495.151 22.7536 495.233C22.8834 495.316 22.9941 495.425 23.0783 495.554C30.0062 505.273 36.9324 514.988 43.8569 524.7C56.1494 541.944 68.4402 559.186 80.7293 576.426C81.511 577.52 82.2926 578.62 83.0743 579.714C83.3956 580.164 83.7169 580.614 84.0326 581.063Z" fill="white"/>
<path d="M115.769 572.793C115.696 575.194 115.537 577.556 115.33 579.897C115.29 580.344 115.249 580.792 115.209 581.24L113.714 581.231C113.76 580.784 113.806 580.336 113.846 579.889C114.162 576.507 114.386 573.087 114.416 569.575C114.456 559.836 113.507 550.119 111.584 540.572C109.539 530.293 106.604 520.211 102.811 510.441C98.8299 500.137 94.03 490.168 88.4574 480.63C88.3524 480.474 88.3057 480.287 88.3255 480.1C88.3871 479.674 88.9543 479.548 89.3783 479.955C89.4621 480.035 89.5342 480.126 89.5926 480.226C90.2821 481.412 90.9589 482.601 91.6232 483.793C96.9903 493.384 101.584 503.388 105.361 513.709C108.959 523.511 111.695 533.608 113.54 543.886C115.268 553.42 116.014 563.106 115.769 572.793V572.793Z" fill="white"/>
<path d="M439.451 19C439.451 15.2422 440.565 11.5687 442.653 8.44417C444.74 5.31964 447.708 2.88436 451.18 1.4463C454.651 0.00823092 458.472 -0.36803 462.157 0.365089C465.843 1.09821 469.228 2.90778 471.886 5.56498C474.543 8.22218 476.352 11.6076 477.086 15.2933C477.819 18.9789 477.442 22.7992 476.004 26.271C474.566 29.7428 472.131 32.7102 469.006 34.7979C465.882 36.8857 462.208 38 458.451 38C453.413 37.9943 448.584 35.9907 445.022 32.4287C441.46 28.8668 439.456 24.0374 439.451 19V19ZM475.451 19C475.451 15.6377 474.454 12.3509 472.586 9.5553C470.718 6.75967 468.063 4.58073 464.956 3.29404C461.85 2.00735 458.432 1.6707 455.134 2.32665C451.836 2.9826 448.807 4.6017 446.43 6.97919C444.052 9.35669 442.433 12.3858 441.777 15.6835C441.121 18.9811 441.458 22.3993 442.745 25.5056C444.031 28.612 446.21 31.267 449.006 33.135C451.801 35.003 455.088 36 458.451 36C462.958 35.9949 467.279 34.2022 470.466 31.0152C473.653 27.8282 475.445 23.5071 475.451 19V19Z" fill="#CCCCCC"/>
<path d="M458.451 30C464.526 30 469.451 25.0751 469.451 19C469.451 12.9249 464.526 8 458.451 8C452.375 8 447.451 12.9249 447.451 19C447.451 25.0751 452.375 30 458.451 30Z" fill="#0E7481"/>
<path d="M394.451 37C404.392 37 412.451 28.9411 412.451 19C412.451 9.05887 404.392 1 394.451 1C384.509 1 376.451 9.05887 376.451 19C376.451 28.9411 384.509 37 394.451 37Z" fill="#CCCCCC"/>
<path d="M330.451 37C340.392 37 348.451 28.9411 348.451 19C348.451 9.05887 340.392 1 330.451 1C320.509 1 312.451 9.05887 312.451 19C312.451 28.9411 320.509 37 330.451 37Z" fill="#CCCCCC"/>
<path d="M634.451 346H175.451C170.943 345.995 166.622 344.202 163.435 341.015C160.248 337.828 158.456 333.507 158.451 329V88C158.456 83.4929 160.248 79.1718 163.435 75.9848C166.622 72.7978 170.943 71.0051 175.451 71H634.451C638.958 71.0051 643.279 72.7978 646.466 75.9848C649.653 79.1718 651.445 83.4929 651.451 88V329C651.445 333.507 649.653 337.828 646.466 341.015C643.279 344.202 638.958 345.995 634.451 346V346ZM175.451 73C171.474 73.0045 167.661 74.5863 164.849 77.3984C162.037 80.2104 160.455 84.0231 160.451 88V329C160.455 332.977 162.037 336.79 164.849 339.602C167.661 342.414 171.474 343.996 175.451 344H634.451C638.427 343.996 642.24 342.414 645.052 339.602C647.864 336.79 649.446 332.977 649.451 329V88C649.446 84.0231 647.864 80.2104 645.052 77.3984C642.24 74.5863 638.427 73.0045 634.451 73H175.451Z" fill="#3F3D56"/>
<path d="M331.451 282H213.451C208.943 281.995 204.622 280.202 201.435 277.015C198.248 273.828 196.456 269.507 196.451 265V147C196.456 142.493 198.248 138.172 201.435 134.985C204.622 131.798 208.943 130.005 213.451 130H331.451C335.958 130.005 340.279 131.798 343.466 134.985C346.653 138.172 348.445 142.493 348.451 147V265C348.445 269.507 346.653 273.828 343.466 277.015C340.279 280.202 335.958 281.995 331.451 282V282ZM213.451 132C209.474 132.004 205.661 133.586 202.849 136.398C200.037 139.21 198.455 143.023 198.451 147V265C198.455 268.977 200.037 272.79 202.849 275.602C205.661 278.414 209.474 279.996 213.451 280H331.451C335.427 279.996 339.24 278.414 342.052 275.602C344.864 272.79 346.446 268.977 346.451 265V147C346.446 143.023 344.864 139.21 342.052 136.398C339.24 133.586 335.427 132.004 331.451 132H213.451Z" fill="#CCCCCC"/>
<path d="M622.439 194H395.439C393.317 194 391.282 193.157 389.782 191.657C388.282 190.157 387.439 188.122 387.439 186C387.439 183.878 388.282 181.843 389.782 180.343C391.282 178.843 393.317 178 395.439 178H622.439C624.561 178 626.595 178.843 628.096 180.343C629.596 181.843 630.439 183.878 630.439 186C630.439 188.122 629.596 190.157 628.096 191.657C626.595 193.157 624.561 194 622.439 194Z" fill="#CCCCCC"/>
<path d="M507.439 160H395.439C393.317 160 391.282 159.157 389.782 157.657C388.282 156.157 387.439 154.122 387.439 152C387.439 149.878 388.282 147.843 389.782 146.343C391.282 144.843 393.317 144 395.439 144H507.439C509.561 144 511.595 144.843 513.096 146.343C514.596 147.843 515.439 149.878 515.439 152C515.439 154.122 514.596 156.157 513.096 157.657C511.595 159.157 509.561 160 507.439 160Z" fill="#CCCCCC"/>
<path d="M622.439 261H395.439C393.317 261 391.282 260.157 389.782 258.657C388.282 257.157 387.439 255.122 387.439 253C387.439 250.878 388.282 248.843 389.782 247.343C391.282 245.843 393.317 245 395.439 245H622.439C624.561 245 626.595 245.843 628.096 247.343C629.596 248.843 630.439 250.878 630.439 253C630.439 255.122 629.596 257.157 628.096 258.657C626.595 260.157 624.561 261 622.439 261Z" fill="#CCCCCC"/>
<path d="M507.439 227H395.439C393.317 227 391.282 226.157 389.782 224.657C388.282 223.157 387.439 221.122 387.439 219C387.439 216.878 388.282 214.843 389.782 213.343C391.282 211.843 393.317 211 395.439 211H507.439C509.561 211 511.595 211.843 513.096 213.343C514.596 214.843 515.439 216.878 515.439 219C515.439 221.122 514.596 223.157 513.096 224.657C511.595 226.157 509.561 227 507.439 227Z" fill="#CCCCCC"/>
<path d="M343.015 277.049C342.883 277.049 342.751 277.023 342.629 276.972C342.507 276.921 342.396 276.846 342.303 276.751L202.686 135.253C202.594 135.159 202.521 135.049 202.471 134.927C202.422 134.805 202.397 134.675 202.398 134.544C202.399 134.412 202.426 134.283 202.477 134.162C202.528 134.041 202.602 133.931 202.696 133.839C202.789 133.747 202.9 133.674 203.021 133.624C203.143 133.575 203.273 133.55 203.405 133.551C203.536 133.552 203.666 133.578 203.787 133.63C203.908 133.681 204.017 133.755 204.11 133.848L343.727 275.347C343.865 275.487 343.959 275.666 343.997 275.859C344.034 276.053 344.014 276.253 343.938 276.435C343.862 276.617 343.733 276.772 343.569 276.882C343.405 276.991 343.212 277.049 343.015 277.049Z" fill="#CCCCCC"/>
<path d="M201.886 277.05C201.689 277.05 201.496 276.992 201.332 276.883C201.168 276.774 201.04 276.618 200.964 276.436C200.888 276.254 200.867 276.054 200.904 275.86C200.942 275.667 201.036 275.489 201.174 275.348L340.787 133.85C340.879 133.756 340.989 133.681 341.11 133.63C341.231 133.579 341.361 133.552 341.493 133.551C341.624 133.55 341.754 133.575 341.876 133.624C341.998 133.674 342.109 133.746 342.202 133.839C342.296 133.931 342.37 134.041 342.422 134.162C342.473 134.283 342.499 134.413 342.5 134.545C342.501 134.676 342.476 134.806 342.426 134.928C342.377 135.05 342.304 135.161 342.211 135.254L202.598 276.753C202.505 276.847 202.394 276.922 202.272 276.973C202.15 277.024 202.019 277.051 201.886 277.05V277.05Z" fill="#CCCCCC"/>
<path d="M615.451 316.5H551.451C547.34 316.5 543.397 314.867 540.49 311.96C537.584 309.053 535.951 305.111 535.951 301C535.951 296.889 537.584 292.947 540.49 290.04C543.397 287.133 547.34 285.5 551.451 285.5H615.451C619.561 285.5 623.504 287.133 626.411 290.04C629.318 292.947 630.951 296.889 630.951 301C630.951 305.111 629.318 309.053 626.411 311.96C623.504 314.867 619.561 316.5 615.451 316.5V316.5Z" fill="#0E7481"/>
<path d="M8.35608 581.223H309.356C309.621 581.223 309.876 581.117 310.063 580.93C310.251 580.742 310.356 580.488 310.356 580.223C310.356 579.957 310.251 579.703 310.063 579.516C309.876 579.328 309.621 579.223 309.356 579.223H8.35608C8.09086 579.223 7.83649 579.328 7.64896 579.516C7.46142 579.703 7.35608 579.957 7.35608 580.223C7.35608 580.488 7.46142 580.742 7.64896 580.93C7.83649 581.117 8.09086 581.223 8.35608 581.223V581.223Z" fill="#3F3D56"/>
<path d="M196.284 569.773L208.544 569.772L214.376 522.484L196.282 522.485L196.284 569.773Z" fill="#A0616A"/>
<path d="M232.188 581.156L193.657 581.158L193.656 566.271L217.3 566.27C221.249 566.27 225.035 567.838 227.827 570.63C230.619 573.422 232.188 577.208 232.188 581.156V581.156V581.156Z" fill="#2F2E41"/>
<path d="M107.329 555.884L118.48 560.978L143.434 520.388L126.975 512.871L107.329 555.884Z" fill="#A0616A"/>
<path d="M135.257 581.156L100.209 565.148L106.394 551.607L127.901 561.43C131.492 563.07 134.285 566.07 135.664 569.77C137.044 573.469 136.898 577.565 135.257 581.156L135.257 581.156Z" fill="#2F2E41"/>
<path d="M143.031 410.329C141.857 409.445 140.89 408.314 140.2 407.016C139.509 405.718 139.112 404.285 139.036 402.817C138.959 401.349 139.206 399.882 139.758 398.519C140.31 397.156 141.154 395.932 142.23 394.93L127.818 362.23L146.127 365.333L157.006 395.91C158.568 397.83 159.371 400.256 159.264 402.729C159.156 405.202 158.145 407.549 156.423 409.326C154.7 411.104 152.386 412.188 149.918 412.372C147.449 412.557 144.999 411.83 143.031 410.329V410.329Z" fill="#A0616A"/>
<path d="M192.594 553.316L180.832 450.593C180.737 449.766 180.351 449 179.743 448.433C179.135 447.865 178.344 447.532 177.513 447.495C176.682 447.457 175.865 447.717 175.208 448.227C174.551 448.738 174.097 449.465 173.928 450.28L168.097 478.374C168.015 478.771 167.879 479.156 167.693 479.516L133.56 545.885C133.058 546.862 132.215 547.621 131.191 548.02C130.168 548.419 129.034 548.429 128.003 548.05L116.135 543.677C115.575 543.47 115.061 543.155 114.625 542.749C114.188 542.342 113.836 541.853 113.59 541.31C113.344 540.766 113.209 540.179 113.192 539.583C113.175 538.986 113.277 538.392 113.491 537.836L141.277 465.783C141.424 465.402 141.503 464.998 141.51 464.59L142.93 389.354C142.951 388.251 143.376 387.195 144.125 386.385C144.874 385.575 145.894 385.068 146.992 384.961L220.727 377.767C221.379 377.704 222.037 377.783 222.656 378C223.274 378.218 223.837 378.567 224.307 379.025C224.776 379.482 225.139 380.037 225.372 380.65C225.604 381.262 225.7 381.918 225.652 382.572L213.265 553.131C213.179 554.263 212.669 555.322 211.837 556.095C211.006 556.869 209.913 557.301 208.777 557.304H197.065C195.96 557.305 194.894 556.898 194.069 556.163C193.245 555.427 192.72 554.414 192.594 553.316V553.316Z" fill="#2F2E41"/>
<path d="M191.233 249.212C204.798 249.212 215.794 238.216 215.794 224.651C215.794 211.086 204.798 200.09 191.233 200.09C177.669 200.09 166.672 211.086 166.672 224.651C166.672 238.216 177.669 249.212 191.233 249.212Z" fill="#A0616A"/>
<path d="M212.519 262.629C211.846 262.308 211.179 261.999 210.516 261.703H210.516C202.451 258.074 193.565 256.662 184.772 257.612C175.98 258.561 167.6 261.838 160.496 267.104C147.415 276.847 141.109 291.516 143.197 307.35C147.598 340.723 142.559 385.994 142.036 390.502C182.412 409.069 217.834 385.726 220.979 383.557L212.519 262.629Z" fill="#0E7481"/>
<path d="M140.936 390.073C140.2 389.956 139.505 389.658 138.913 389.205C138.321 388.753 137.851 388.16 137.546 387.481L116.936 341.816C116.164 340.108 115.823 338.236 115.943 336.365C116.063 334.494 116.641 332.681 117.626 331.086L142.935 290.018C143.732 288.539 144.958 287.336 146.452 286.568C147.946 285.8 149.638 285.503 151.304 285.715C152.97 285.928 154.533 286.641 155.786 287.76C157.039 288.879 157.923 290.352 158.322 291.984C158.775 293.843 158.574 295.801 157.753 297.53L139.031 336.846L151.336 378.494C151.553 379.238 151.576 380.026 151.401 380.782C151.226 381.538 150.86 382.236 150.337 382.809L144.965 388.671C144.544 389.131 144.033 389.498 143.463 389.749C142.892 390.001 142.276 390.13 141.653 390.13C141.413 390.13 141.173 390.111 140.936 390.073V390.073Z" fill="#0E7481"/>
<path opacity="0.2" d="M198.308 380.528L194.498 304.328L195.486 304.199L212.615 384.803H202.802C201.647 384.804 200.537 384.36 199.7 383.564C198.863 382.769 198.365 381.682 198.308 380.528V380.528Z" fill="black"/>
<path d="M211.881 404.842C210.916 403.733 210.205 402.426 209.799 401.013C209.394 399.6 209.302 398.116 209.533 396.664C209.763 395.212 210.308 393.828 211.131 392.609C211.954 391.391 213.034 390.368 214.295 389.612L206.986 354.633L224.252 361.469L228.545 393.638C229.674 395.841 229.956 398.381 229.338 400.778C228.719 403.174 227.243 405.261 225.189 406.642C223.135 408.022 220.646 408.602 218.193 408.27C215.741 407.939 213.495 406.719 211.881 404.842V404.842Z" fill="#A0616A"/>
<path d="M208.432 381.071L194.003 284.879L193.989 284.788L196.778 271.958C197.477 268.744 199.323 265.894 201.971 263.943C204.619 261.991 207.887 261.071 211.164 261.355C214.441 261.639 217.502 263.107 219.775 265.485C222.048 267.863 223.377 270.987 223.513 274.273L227.843 379.056C227.886 380.193 227.498 381.305 226.756 382.169C226.015 383.033 224.974 383.585 223.843 383.714L213.379 384.877C213.21 384.896 213.041 384.905 212.871 384.905C211.794 384.906 210.753 384.519 209.938 383.815C209.123 383.111 208.588 382.137 208.432 381.071Z" fill="#0E7481"/>
<path d="M181.138 246.956C177.798 246.927 174.533 245.953 171.723 244.146C168.913 242.34 166.672 239.774 165.259 236.747V236.747C162.982 231.931 161.717 228.094 161.499 225.343C160.911 217.95 165.088 206.333 170.62 199.975C176.689 192.999 186.294 192.026 195.582 191.085C198.12 190.828 200.745 190.562 203.229 190.176C205.36 189.845 208.012 189.433 210.267 190.27C210.919 190.509 211.515 190.878 212.019 191.355C212.523 191.832 212.924 192.406 213.199 193.043C213.287 193.267 213.421 193.471 213.591 193.641C213.761 193.811 213.964 193.945 214.188 194.034C214.381 194.108 214.588 194.141 214.794 194.131C215.001 194.122 215.204 194.069 215.389 193.977C215.766 193.785 216.183 193.685 216.606 193.685C217.029 193.685 217.446 193.785 217.823 193.976C218.156 194.144 218.445 194.388 218.666 194.689C218.887 194.989 219.033 195.338 219.094 195.705C219.133 195.958 219.211 196.203 219.326 196.432C219.52 196.787 219.788 197.097 220.111 197.342C220.434 197.586 220.805 197.759 221.2 197.85C221.803 197.985 222.336 198.335 222.698 198.835C223.061 199.334 223.229 199.95 223.169 200.564C223.02 201.826 222.956 203.187 222.894 204.504C222.662 209.459 222.424 214.582 217.442 214.499C216.168 214.447 214.907 214.224 213.692 213.837C211.888 213.336 210.462 212.938 208.543 214.136C205.591 215.976 205.109 219.822 204.684 223.215L204.609 223.809C204.112 227.69 202.061 232.361 197.914 232.751C196.597 232.794 195.286 232.567 194.061 232.083C192.8 231.526 191.402 231.358 190.045 231.602C187.768 232.251 186.671 234.972 186.765 237.323C186.826 238.286 186.949 239.244 187.134 240.191C187.47 241.691 187.577 243.232 187.453 244.764C187.334 245.696 186.264 246.31 184.084 246.696C183.112 246.869 182.126 246.955 181.138 246.956Z" fill="#2F2E41"/>
</g>
<defs>
<clipPath id="clip0">
<rect width="651.451" height="581.322" fill="white"/>
</clipPath>
</defs>
</svg>
